<svg id="Capa_1" data-name="Capa 1" xmlns="http://www.w3.org/2000/svg" viewBox="0 0 520.6 641.53"><defs><style>.cls-1{fill:#1f1e1c;}</style></defs><title>icono candado - RECORTADO</title><g id="_1f1e1cff" data-name="#1f1e1cff"><path class="cls-1" d="M227.53,2.57c18.77-3.11,38-3.15,56.88-1.46,59.16,6.3,114,43.7,141.44,96.45,4,8.5,8.44,16.91,11,26a150.08,150.08,0,0,1,7.33,52.59c0,24.22.07,48.44,0,72.66q-34.91,0-69.82,0c-0.5-27.48.08-55-.3-82.47-2.4-33-21.23-63.88-48.49-82.33A116.87,116.87,0,0,0,262.39,63.7c-34.22-.54-68.55,14.59-90.6,40.89-16.58,19.46-26.72,44.84-26.05,70.57-0.18,24.55.33,49.12-.27,73.65-23.33.09-46.67-.05-70,0,0.21-29.55-.41-59.12.21-88.66,2.92-37.9,20.64-73.75,46.41-101.34C150,29.39,187.45,9.12,227.53,2.57Z"/><path class="cls-1" d="M32.78,267.73C48,267,63.2,267.64,78.4,267.41q200.5,0,401,0c16.35-1.33,32.87,9.08,38.43,24.54,3.9,10,2.41,20.79,2.72,31.21,0.21,12-.45,24,0,36-0.16,37.34.06,74.66,0,112-0.63,7.33.15,14.66,0,22-0.08,35.33.14,70.67-.13,106,0.55,9.11-1.49,18.6-6.91,26.07a38.55,38.55,0,0,1-33.12,16.26q-215-.06-430,0c-7.82-.2-15.89.87-23.44-1.75-15-4.35-26.33-18.9-26.89-34.55q-0.08-145,0-290c0.09-6.65-.62-13.46,1.5-19.89a38.28,38.28,0,0,1,31.24-27.54m188.29,97.11a64,64,0,0,0-21.55,31.57,60,60,0,0,0,4.61,46,65.34,65.34,0,0,0,21.62,23.4,2.92,2.92,0,0,1,1.57,3.31c-0.08,20.37,0,40.74,0,61.1a31.58,31.58,0,0,0,12.85,25.22c8.38,6,19.59,8.31,29.49,5.08,12.78-3.76,22.7-15.9,23.07-29.32,0.1-21.49,0-43,.11-64.47a63.18,63.18,0,0,0,30.29-49.62,62.11,62.11,0,0,0-14.58-43c-9.81-12.11-24.57-19.89-39.93-22A64.54,64.54,0,0,0,221.07,364.84Z"/></g></svg>